<svg width="160" height="48" viewBox="0 0 160 48" fill="none" xmlns="http://www.w3.org/2000/svg">
  <rect width="160" height="48" rx="16" fill="#121217"/>
  <path d="M36 24C36 17.3726 41.3726 12 48 12C51.524 12 54.6578 13.2907 56.9003 15.4104L50.2538 21.3501C48.7257 19.9194 46.4932 19.1303 44 19.1303C40.4587 19.1303 37.5068 21.5968 36.7498 24.8697C36.5453 25.8919 36.5453 26.9648 36.7498 27.987C37.5068 31.2599 40.4587 33.7264 44 33.7264C46.4932 33.7264 48.7257 32.9373 50.2538 31.5066L56.9003 37.4463C54.6578 39.566 51.524 40.8567 48 40.8567C41.3726 40.8567 36 35.4841 36 28.8567V24Z" fill="#4285F4"/>
  <rect x="64" y="16" width="70" height="16" rx="8" fill="#1E1E28"/>
</svg>
